<svg width="22" height="20" viewBox="0 0 22 20" fill="none" xmlns="http://www.w3.org/2000/svg">
    <path
      d="M9.61886 19.6898C9.55095 19.6898 9.50568 19.6672 9.43777 19.6445C9.27932 19.5766 9.18877 19.4182 9.18877 19.2597V16.3403C3.91539 15.7518 0 12.3117 0 8.21531C0 3.68899 4.82057 0 10.7503 0C16.6799 0 21.5005 3.68903 21.5005 8.21531C21.5005 11.8364 18.3319 15.0726 13.8054 16.091L9.89036 19.5765C9.82245 19.6444 9.70927 19.6897 9.61872 19.6897L9.61886 19.6898ZM10.7505 0.859904C5.29607 0.859904 0.860487 4.16413 0.860487 8.21541C0.860487 11.9724 4.64008 15.0956 9.64182 15.5256C9.86818 15.5482 10.0266 15.7293 10.0266 15.9556V18.2867L13.3082 15.3671C13.3535 15.3218 13.4214 15.2766 13.512 15.2766C17.7214 14.3713 20.6411 11.4743 20.6411 8.2153C20.6411 4.16425 16.2052 0.859796 10.7511 0.859796L10.7505 0.859904Z"
      fill="currentColor"
    />
  </svg>