<svg width="19" height="32" viewBox="0 0 19 32" xmlns="http://www.w3.org/2000/svg">
  <path
    d="M11.0837 32H5.3184C4.88213 32 4.5312 31.6491 4.5312 31.2128V18.0544H0.787201C0.353068 18.0544 0 17.7003 0 17.2683V11.0859C0 10.6528 0.353068 10.2987 0.787201 10.2987H4.5312V8.6784C4.5312 3.9744 8.07467 0 12.2699 0H17.2661C17.6992 0 18.0523 0.353067 18.0523 0.7872V6.96747C18.0523 7.39947 17.6992 7.75467 17.2661 7.75467H12.2784C12.1867 7.77707 11.872 8.0416 11.872 8.62293V10.2965H17.2661C17.6992 10.2965 18.0523 10.6507 18.0523 11.0837V17.2661C18.0523 17.6981 17.6992 18.0523 17.2661 18.0523H11.872V31.2107C11.8709 31.6491 11.5189 32 11.0837 32Z"
    fill="currentColor"
  />
</svg>
