 <svg width="45" height="45" viewBox="0 0 45 45" fill="none" xmlns="http://www.w3.org/2000/svg">
    <path
      d="M22.5 12.1875C20.4604 12.1875 18.4666 12.7923 16.7707 13.9255C15.0748 15.0586 13.753 16.6692 12.9725 18.5536C12.192 20.4379 11.9877 22.5114 12.3857 24.5119C12.7836 26.5123 13.7657 28.3498 15.208 29.792C16.6502 31.2343 18.4877 32.2164 20.4881 32.6143C22.4886 33.0123 24.5621 32.808 26.4464 32.0275C28.3308 31.247 29.9414 29.9252 31.0745 28.2293C32.2077 26.5334 32.8125 24.5396 32.8125 22.5C32.8094 19.7659 31.7219 17.1447 29.7886 15.2114C27.8553 13.2781 25.2341 12.1906 22.5 12.1875ZM22.5 30.9375C20.8312 30.9375 19.1999 30.4426 17.8124 29.5155C16.4248 28.5884 15.3434 27.2706 14.7048 25.7289C14.0662 24.1871 13.8991 22.4906 14.2246 20.8539C14.5502 19.2172 15.3538 17.7138 16.5338 16.5338C17.7138 15.3538 19.2172 14.5502 20.8539 14.2246C22.4906 13.8991 24.1871 14.0662 25.7289 14.7048C27.2706 15.3434 28.5884 16.4248 29.5155 17.8124C30.4426 19.1999 30.9375 20.8312 30.9375 22.5C30.935 24.737 30.0452 26.8816 28.4634 28.4634C26.8816 30.0452 24.737 30.935 22.5 30.9375ZM32.8125 0H12.1875C8.9563 0.00365995 5.85849 1.28887 3.57368 3.57368C1.28887 5.85849 0.00365995 8.9563 0 12.1875V32.8125C0.00365995 36.0437 1.28887 39.1415 3.57368 41.4263C5.85849 43.7111 8.9563 44.9963 12.1875 45H32.8125C36.0437 44.9963 39.1415 43.7111 41.4263 41.4263C43.7111 39.1415 44.9963 36.0437 45 32.8125V12.1875C44.9963 8.9563 43.7111 5.85849 41.4263 3.57368C39.1415 1.28887 36.0437 0.00365995 32.8125 0ZM43.125 32.8125C43.1219 35.5466 42.0344 38.1678 40.1011 40.1011C38.1678 42.0344 35.5466 43.1219 32.8125 43.125H12.1875C9.4534 43.1219 6.83217 42.0344 4.89887 40.1011C2.96557 38.1678 1.87809 35.5466 1.875 32.8125V12.1875C1.87809 9.4534 2.96557 6.83217 4.89887 4.89887C6.83217 2.96557 9.4534 1.87809 12.1875 1.875H32.8125C35.5466 1.87809 38.1678 2.96557 40.1011 4.89887C42.0344 6.83217 43.1219 9.4534 43.125 12.1875V32.8125ZM36.5625 10.3125C36.5625 10.6833 36.4525 11.0459 36.2465 11.3542C36.0405 11.6625 35.7476 11.9029 35.405 12.0448C35.0624 12.1867 34.6854 12.2238 34.3217 12.1515C33.958 12.0791 33.6239 11.9005 33.3617 11.6383C33.0994 11.3761 32.9209 11.042 32.8485 10.6783C32.7762 10.3146 32.8133 9.93758 32.9552 9.59497C33.0971 9.25236 33.3375 8.95952 33.6458 8.75349C33.9541 8.54747 34.3167 8.4375 34.6875 8.4375C35.1846 8.43807 35.6612 8.6358 36.0127 8.9873C36.3642 9.33881 36.5619 9.81539 36.5625 10.3125Z"
      fill="currentColor"
    />
  </svg>
