 <svg width="60" height="59" viewBox="0 0 60 59" fill="none" xmlns="http://www.w3.org/2000/svg">
    <path
      d="M7.03932 0C2.9609 0 0 2.81338 0 6.68683C0 10.559 2.90215 13.3697 6.89832 13.3697C8.97147 13.3697 10.7574 12.6974 12.0642 11.4258C13.3175 10.2052 14.0081 8.52238 14.0068 6.6568C13.9154 2.73766 11.0498 0 7.03932 0ZM10.2443 9.55504C9.43493 10.3423 8.27694 10.7587 6.89832 10.7587C4.37477 10.7587 2.61102 9.08505 2.61102 6.68683C2.61102 4.24944 4.39044 2.61102 7.03932 2.61102C9.62815 2.61102 11.3384 4.22333 11.3971 6.68813C11.3958 7.81349 10.9872 8.83048 10.2443 9.55504Z"
      fill="currentColor"
    />
    <path
      d="M1.25195 58.7154H12.9859V15.5748H1.25195V58.7154ZM3.86298 18.1858H10.3749V56.103H3.86298V18.1858Z"
      fill="currentColor"
    />
    <path
      d="M43.9279 15.5748C38.4866 15.5748 35.1549 17.4534 33.2254 19.2197L32.8585 15.5748H19.5828V58.7141H32.5844V36.0413C32.5844 35.0647 32.9799 33.0373 33.228 32.502C34.7985 29.1194 36.9173 29.1194 40.1263 29.1194C43.8222 29.1194 46.945 32.5856 46.945 36.6875V58.7167H60.0001V34.3428C60.0001 21.4469 51.6683 15.5748 43.9279 15.5748ZM57.3891 56.1044H49.556V36.6862C49.556 31.1678 45.2374 26.5071 40.1263 26.5071C36.8468 26.5071 33.1314 26.5071 30.8585 31.4028C30.3898 32.4145 29.972 34.8389 29.972 36.0413V56.1044H22.1938V18.1858H30.4968L31.0295 23.4653H33.1692L33.5517 22.8478C34.4225 21.4456 37.1758 18.1845 43.9279 18.1845C50.4111 18.1845 57.3891 23.2394 57.3891 34.3389V56.1044Z"
      fill="currentColor"
    />
  </svg>