  <svg width="23" height="23" viewBox="0 0 23 23" fill="none" xmlns="http://www.w3.org/2000/svg">
    <g clip-path="url(#clip0_36_357)">
      <path
        fill-rule="evenodd"
        clip-rule="evenodd"
        d="M9.47059 17.5882C4.99371 17.5882 1.35294 13.9475 1.35294 9.47059C1.35294 4.99371 4.99371 1.35294 9.47059 1.35294C13.9475 1.35294 17.5882 4.99371 17.5882 9.47059C17.5882 13.9475 13.9475 17.5882 9.47059 17.5882ZM16.6195 15.663C18.0618 14.0016 18.9412 11.8382 18.9412 9.47059C18.9412 4.24959 14.6916 0 9.47059 0C4.24959 0 0 4.24959 0 9.47059C0 14.6916 4.24959 18.9412 9.47059 18.9412C11.8382 18.9412 14.0016 18.0618 15.663 16.6195L21.8446 22.8025L22.8025 21.8446L16.6195 15.663Z"
        fill="currentColor"
      />
    </g>
    <defs>
      <clipPath id="clip0_36_357">
        <rect width="23" height="23" fill="white" />
      </clipPath>
    </defs>
  </svg>