 <svg width="32" height="26" viewBox="0 0 32 26" fill="none" xmlns="http://www.w3.org/2000/svg">
    <path
      d="M20.8824 2C22.5244 2 24.3874 2.652 25.4314 3.738C26.7294 3.486 27.9544 3.025 29.0554 2.386C28.6304 3.687 27.7234 4.779 26.5454 5.469C27.6984 5.332 28.8024 5.035 29.8254 4.59C29.0594 5.707 28.0924 6.69 26.9764 7.477C26.9864 7.715 26.9924 7.955 26.9924 8.195C26.9924 15.562 21.4504 24 10.9444 24C7.72042 24 4.51242 23.133 1.98742 21.551C2.43342 21.605 2.88842 21.631 3.34842 21.631C6.02442 21.631 8.48742 20.74 10.4444 19.242C7.94242 19.199 5.83242 17.586 5.10842 15.373C5.45542 15.437 5.81542 15.473 6.18342 15.473C6.70142 15.473 7.20842 15.406 7.68642 15.277C5.07342 14.768 3.10542 12.514 3.10542 9.813C3.10542 9.787 3.10542 9.764 3.10542 9.74C3.87642 10.158 4.75542 10.41 5.69242 10.44C4.15942 9.437 3.15242 7.734 3.15242 5.799C3.15242 4.777 3.43342 3.818 3.92442 2.998C6.74042 6.367 10.9504 8.588 15.6984 8.822C15.5994 8.414 15.5484 7.984 15.5484 7.553C15.5484 4.473 17.7264 2 20.8824 2ZM29.8254 4.59H29.8304ZM20.8824 0C17.0384 0 14.0654 2.753 13.6194 6.552C10.4304 5.905 7.52942 4.204 5.44542 1.711C5.06642 1.257 4.50842 0.998 3.92442 0.998C3.87242 0.998 3.82042 1 3.76842 1.004C3.12842 1.055 2.55242 1.413 2.22142 1.966C1.53042 3.122 1.16442 4.447 1.16442 5.799C1.16442 6.7 1.32642 7.579 1.63042 8.4C1.30542 8.762 1.11842 9.238 1.11842 9.74V9.813C1.11842 11.772 1.88742 13.589 3.16542 14.952C3.09242 15.294 3.10842 15.655 3.22042 15.998C3.66242 17.348 4.46442 18.51 5.50442 19.396C4.80542 19.552 4.08442 19.631 3.34842 19.631C2.95942 19.631 2.58242 19.609 2.22742 19.565C2.14642 19.556 2.06642 19.551 1.98642 19.551C1.15342 19.551 0.39642 20.078 0.11342 20.886C-0.19658 21.77 0.14542 22.753 0.93742 23.249C3.76942 25.023 7.32342 26 10.9444 26C17.7834 26 22.0304 22.843 24.3884 20.195C27.2484 16.984 28.9124 12.718 28.9774 8.455C29.9044 7.682 30.7224 6.79 31.4154 5.792C31.6664 5.458 31.8154 5.041 31.8154 4.59C31.8154 3.909 31.4784 3.308 30.9634 2.946C31.1864 2.176 30.9304 1.342 30.3084 0.833C29.9454 0.537 29.5014 0.386 29.0544 0.386C28.7134 0.386 28.3704 0.474 28.0614 0.654C27.3964 1.04 26.6854 1.344 25.9364 1.562C24.5604 0.592 22.6934 0 20.8824 0Z"
      fill="currentColor"
    />
  </svg>